<svg fill="none" height="532" viewBox="0 0 532 532" width="532" xmlns="http://www.w3.org/2000/svg" xmlns:xlink="http://www.w3.org/1999/xlink"><filter id="a" color-interpolation-filters="sRGB" filterUnits="userSpaceOnUse" height="532" width="532" x="0" y="0"><feFlood flood-opacity="0" result="BackgroundImageFix"/><feColorMatrix in="SourceAlpha" result="hardAlpha" type="matrix" values="0 0 0 0 0 0 0 0 0 0 0 0 0 0 0 0 0 0 127 0"/><feOffset dy="4"/><feGaussianBlur stdDeviation="5"/><feColorMatrix type="matrix" values="0 0 0 0 0 0 0 0 0 0 0 0 0 0 0 0 0 0 0.2 0"/><feBlend in2="BackgroundImageFix" mode="normal" result="effect1_dropShadow_901_2"/><feBlend in="SourceGraphic" in2="effect1_dropShadow_901_2" mode="normal" result="shape"/></filter><linearGradient id="b" gradientUnits="userSpaceOnUse" x1="266" x2="266" y1="6" y2="518"><stop offset="0" stop-color="#ff7ae2"/><stop offset="1" stop-color="#da14a2"/></linearGradient><g filter="url(#a)"><rect fill="url(#b)" height="512" rx="110" width="512" x="10" y="6"/><g fill="#fed0ff"><path d="m326.354 183.531h12.073c1.6 0 3.134.636 4.265 1.767s1.766 2.665 1.766 4.264c0 1.6-.635 3.134-1.766 4.265s-2.665 1.767-4.265 1.767h-12.073c-1.599 0-3.133-.636-4.265-1.767-1.131-1.131-1.766-2.665-1.766-4.265 0-1.599.635-3.133 1.766-4.264 1.132-1.131 2.666-1.767 4.265-1.767z"/><path d="m145.281 376.677h60.354c1.6 0 3.134.635 4.265 1.766 1.131 1.132 1.767 2.666 1.767 4.265 0 .792-.156 1.576-.46 2.308-.303.732-.747 1.397-1.307 1.957s-1.225 1.004-1.957 1.307c-.731.303-1.516.459-2.308.459h-60.354c-1.598 0-3.13-.634-4.261-1.762-1.131-1.129-1.767-2.661-1.77-4.258-.001-.793.154-1.579.456-2.312.303-.732.747-1.399 1.307-1.96s1.225-1.006 1.958-1.31c.732-.304 1.517-.46 2.31-.46z"/><path d="m290.146 280.104h36.219c1.599 0 3.133.636 4.264 1.767s1.767 2.665 1.767 4.264c0 1.6-.636 3.134-1.767 4.265s-2.665 1.767-4.264 1.767h-36.219c-1.6 0-3.134-.636-4.265-1.767s-1.766-2.665-1.766-4.265c0-1.599.635-3.133 1.766-4.264s2.665-1.767 4.265-1.767z"/><path d="m217.719 280.104h48.281c1.6 0 3.134.636 4.265 1.767s1.766 2.665 1.766 4.264c0 1.6-.635 3.134-1.766 4.265s-2.665 1.767-4.265 1.767h-48.281c-1.6 0-3.134-.636-4.265-1.767s-1.766-2.665-1.766-4.265c0-1.599.635-3.133 1.766-4.264s2.665-1.767 4.265-1.767z"/><path d="m145.281 280.104h48.292c1.6 0 3.134.636 4.265 1.767s1.766 2.665 1.766 4.264c0 1.6-.635 3.134-1.766 4.265s-2.665 1.767-4.265 1.767h-48.292c-1.598 0-3.13-.634-4.261-1.763s-1.767-2.66-1.77-4.258c-.001-.793.154-1.578.456-2.311.303-.733.747-1.399 1.307-1.961.56-.561 1.225-1.006 1.958-1.31.732-.304 1.517-.46 2.31-.46z"/><path d="m145.281 328.396h60.354c1.6 0 3.134.635 4.265 1.766s1.766 2.666 1.766 4.265c0 1.6-.635 3.134-1.766 4.265s-2.665 1.766-4.265 1.766h-60.354c-1.599 0-3.133-.635-4.265-1.766-1.131-1.131-1.766-2.665-1.766-4.265 0-1.599.635-3.134 1.766-4.265 1.132-1.131 2.666-1.766 4.265-1.766z"/><path d="m145.281 231.823h60.354c1.6 0 3.134.635 4.265 1.766 1.131 1.132 1.766 2.666 1.766 4.265 0 1.6-.635 3.134-1.766 4.265s-2.665 1.766-4.265 1.766h-60.354c-1.599 0-3.133-.635-4.265-1.766-1.131-1.131-1.766-2.665-1.766-4.265 0-1.599.635-3.133 1.766-4.265 1.132-1.131 2.666-1.766 4.265-1.766z"/><path d="m205.646 159.396h120.708c1.6 0 3.134.635 4.265 1.766s1.766 2.665 1.766 4.265c0 1.6-.635 3.134-1.766 4.265s-2.665 1.766-4.265 1.766h-120.708c-1.6 0-3.134-.635-4.265-1.766s-1.766-2.665-1.766-4.265.635-3.134 1.766-4.265 2.665-1.766 4.265-1.766z"/><path d="m145.281 159.396h36.219c1.6 0 3.134.635 4.265 1.766s1.766 2.665 1.766 4.265c.002.793-.153 1.578-.456 2.311-.302.733-.746 1.399-1.307 1.961-.56.561-1.225 1.006-1.958 1.31-.732.303-1.517.46-2.31.46h-36.219c-.793 0-1.578-.157-2.31-.46-.733-.304-1.398-.749-1.958-1.31-.56-.562-1.004-1.228-1.307-1.961-.302-.733-.457-1.518-.456-2.311 0-1.6.635-3.134 1.767-4.265 1.131-1.131 2.665-1.766 4.264-1.766z"/><path d="m193.573 352.531h12.073c1.599 0 3.134.636 4.265 1.767s1.766 2.665 1.766 4.264c0 1.6-.635 3.134-1.766 4.265s-2.666 1.767-4.265 1.767h-12.073c-1.6 0-3.134-.636-4.265-1.767s-1.766-2.665-1.766-4.265c0-1.599.635-3.133 1.766-4.264s2.665-1.767 4.265-1.767z"/><path d="m193.573 207.677h12.073c1.599 0 3.134.635 4.265 1.766 1.131 1.132 1.766 2.666 1.766 4.265 0 1.6-.635 3.134-1.766 4.265s-2.666 1.766-4.265 1.766h-12.073c-1.6 0-3.134-.635-4.265-1.766s-1.766-2.665-1.766-4.265c0-1.599.635-3.133 1.766-4.265 1.131-1.131 2.665-1.766 4.265-1.766z"/><path d="m145.281 352.531h24.146c1.6 0 3.134.636 4.265 1.767s1.766 2.665 1.766 4.264c0 1.6-.635 3.134-1.766 4.265s-2.665 1.767-4.265 1.767h-24.146c-1.598 0-3.13-.634-4.261-1.763s-1.767-2.66-1.77-4.258c-.001-.793.154-1.578.456-2.311.303-.733.747-1.399 1.307-1.961.56-.561 1.225-1.006 1.958-1.31.732-.304 1.517-.46 2.31-.46z"/><path d="m145.281 207.677h24.146c1.6 0 3.134.635 4.265 1.766 1.131 1.132 1.766 2.666 1.766 4.265.002.793-.153 1.579-.456 2.311-.302.733-.746 1.4-1.306 1.961-.561.561-1.226 1.006-1.958 1.31-.733.304-1.518.46-2.311.46h-24.146c-1.599 0-3.133-.635-4.264-1.767-1.132-1.131-1.767-2.665-1.767-4.264-.001-.793.154-1.579.456-2.312.303-.732.747-1.399 1.307-1.96s1.225-1.006 1.958-1.31c.732-.304 1.517-.46 2.31-.46z"/><path d="m241.854 255.969h96.573c1.6 0 3.134.635 4.265 1.766s1.766 2.665 1.766 4.265c0 1.6-.635 3.134-1.766 4.265s-2.665 1.766-4.265 1.766h-96.573c-1.599 0-3.133-.635-4.265-1.766-1.131-1.131-1.766-2.665-1.766-4.265 0-1.6.635-3.134 1.766-4.265 1.132-1.131 2.666-1.766 4.265-1.766z"/><path d="m181.5 255.969h36.219c1.599 0 3.133.635 4.264 1.766 1.132 1.131 1.767 2.665 1.767 4.265s-.635 3.134-1.767 4.265c-1.131 1.131-2.665 1.766-4.264 1.766h-36.219c-1.6 0-3.134-.635-4.265-1.766s-1.766-2.665-1.766-4.265c0-1.6.635-3.134 1.766-4.265s2.665-1.766 4.265-1.766z"/><path d="m145.281 255.969h12.073c.793-.002 1.578.153 2.311.456.733.302 1.399.746 1.961 1.307.561.56 1.006 1.225 1.31 1.958.304.732.46 1.517.46 2.31 0 1.6-.636 3.134-1.767 4.265s-2.665 1.766-4.264 1.766h-12.084c-1.599 0-3.133-.635-4.265-1.766-1.131-1.131-1.766-2.665-1.766-4.265 0-1.6.635-3.134 1.766-4.265 1.132-1.131 2.666-1.766 4.265-1.766z"/><path d="m253.927 183.531h48.281c.794-.001 1.58.154 2.314.457s1.4.748 1.962 1.31c.561.561 1.006 1.228 1.309 1.961.303.734.459 1.52.457 2.314 0 1.599-.635 3.134-1.766 4.265s-2.665 1.766-4.265 1.766h-48.292c-1.599 0-3.133-.635-4.265-1.766-1.131-1.131-1.766-2.666-1.766-4.265-.001-.793.154-1.578.456-2.311.303-.733.747-1.399 1.307-1.961.56-.561 1.225-1.006 1.958-1.31.732-.304 1.517-.46 2.31-.46z"/><path d="m145.281 183.531h84.5c1.6 0 3.134.636 4.265 1.767s1.766 2.665 1.766 4.264c0 1.6-.635 3.134-1.766 4.265s-2.665 1.767-4.265 1.767h-84.5c-1.598 0-3.13-.634-4.261-1.763s-1.767-2.66-1.77-4.258c-.001-.793.154-1.578.456-2.311.303-.733.747-1.399 1.307-1.961.56-.561 1.225-1.006 1.958-1.31.732-.304 1.517-.46 2.31-.46z"/><path d="m181.5 304.25h108.646c.792 0 1.576.156 2.308.459s1.396.747 1.957 1.307c.56.561 1.004 1.225 1.307 1.957s.459 1.516.459 2.308c0 1.6-.635 3.134-1.766 4.265-1.132 1.131-2.666 1.766-4.265 1.766h-108.646c-1.6 0-3.134-.635-4.265-1.766s-1.766-2.665-1.766-4.265c0-.792.156-1.576.459-2.308s.747-1.396 1.307-1.957c.56-.56 1.225-1.004 1.957-1.307s1.516-.459 2.308-.459z"/><path d="m145.281 304.25h12.073c.792 0 1.576.156 2.308.459s1.397.747 1.957 1.307c.56.561 1.004 1.225 1.307 1.957s.459 1.516.459 2.308c0 1.6-.635 3.134-1.766 4.265s-2.665 1.766-4.265 1.766h-12.073c-1.599 0-3.133-.635-4.265-1.766-1.131-1.131-1.766-2.665-1.766-4.265 0-.792.156-1.576.459-2.308s.747-1.396 1.307-1.957c.561-.56 1.225-1.004 1.957-1.307s1.516-.459 2.308-.459z"/><path d="m290.146 207.677h60.354c1.6 0 3.134.635 4.265 1.766 1.131 1.132 1.766 2.666 1.766 4.265.002.793-.153 1.579-.456 2.311-.302.733-.746 1.4-1.307 1.961-.56.561-1.225 1.006-1.957 1.31-.733.304-1.518.46-2.311.46h-60.354c-1.6 0-3.134-.635-4.265-1.767-1.131-1.131-1.766-2.665-1.766-4.264-.002-.793.153-1.579.456-2.312.302-.732.746-1.399 1.307-1.96.56-.561 1.225-1.006 1.957-1.31.733-.304 1.518-.46 2.311-.46z"/><path d="m145.281 135.25h144.865c1.599 0 3.134.635 4.265 1.766 1.131 1.132 1.766 2.666 1.766 4.265 0 1.6-.635 3.134-1.766 4.265s-2.666 1.766-4.265 1.766h-144.865c-1.599 0-3.133-.635-4.265-1.766-1.131-1.131-1.766-2.665-1.766-4.265 0-1.599.635-3.133 1.766-4.265 1.132-1.131 2.666-1.766 4.265-1.766z"/><path d="m290.146 231.823h60.354c1.6 0 3.134.635 4.265 1.766 1.131 1.132 1.766 2.666 1.766 4.265 0 1.6-.635 3.134-1.766 4.265s-2.665 1.766-4.265 1.766h-60.354c-1.6 0-3.134-.635-4.265-1.766s-1.766-2.665-1.766-4.265c0-1.599.635-3.133 1.766-4.265 1.131-1.131 2.665-1.766 4.265-1.766z"/></g><g opacity=".5"><path d="m314.281 135.25h72.427c.793-.001 1.579.154 2.312.456.732.303 1.399.747 1.96 1.307s1.006 1.225 1.31 1.958c.304.732.46 1.517.46 2.31 0 1.6-.635 3.134-1.766 4.265-1.132 1.131-2.666 1.766-4.265 1.766h-72.438c-.792 0-1.576-.156-2.308-.459s-1.396-.747-1.957-1.307c-.56-.56-1.004-1.225-1.307-1.957s-.459-1.516-.459-2.308c0-.792.156-1.576.459-2.308s.747-1.396 1.307-1.956c.561-.561 1.225-1.005 1.957-1.308s1.516-.459 2.308-.459z" fill="#d0d4d8"/><path d="m314.281 135.25h72.427c.793-.001 1.579.154 2.312.456.732.303 1.399.747 1.96 1.307s1.006 1.225 1.31 1.958c.304.732.46 1.517.46 2.31 0 1.6-.635 3.134-1.766 4.265-1.132 1.131-2.666 1.766-4.265 1.766h-72.438c-.792 0-1.576-.156-2.308-.459s-1.396-.747-1.957-1.307c-.56-.56-1.004-1.225-1.307-1.957s-.459-1.516-.459-2.308c0-.792.156-1.576.459-2.308s.747-1.396 1.307-1.956c.561-.561 1.225-1.005 1.957-1.308s1.516-.459 2.308-.459z" fill="#791c88"/></g><g opacity=".5"><path d="m314.281 304.25h24.146c.792 0 1.576.156 2.308.459s1.397.747 1.957 1.307c.56.561 1.004 1.225 1.307 1.957s.459 1.516.459 2.308c0 1.6-.635 3.134-1.766 4.265s-2.665 1.766-4.265 1.766h-24.146c-.792 0-1.576-.156-2.308-.459s-1.396-.747-1.957-1.307c-.56-.56-1.004-1.225-1.307-1.957s-.459-1.516-.459-2.308c0-.792.156-1.576.459-2.308s.747-1.396 1.307-1.957c.561-.56 1.225-1.004 1.957-1.307s1.516-.459 2.308-.459z" fill="#d0d4d8"/><path d="m314.281 304.25h24.146c.792 0 1.576.156 2.308.459s1.397.747 1.957 1.307c.56.561 1.004 1.225 1.307 1.957s.459 1.516.459 2.308c0 1.6-.635 3.134-1.766 4.265s-2.665 1.766-4.265 1.766h-24.146c-.792 0-1.576-.156-2.308-.459s-1.396-.747-1.957-1.307c-.56-.56-1.004-1.225-1.307-1.957s-.459-1.516-.459-2.308c0-.792.156-1.576.459-2.308s.747-1.396 1.307-1.957c.561-.56 1.225-1.004 1.957-1.307s1.516-.459 2.308-.459z" fill="#791c88"/></g><g opacity=".5"><path d="m362.573 304.25h24.146c.792 0 1.576.156 2.308.459s1.396.747 1.956 1.307c.561.561 1.005 1.225 1.308 1.957s.459 1.516.459 2.308c0 .792-.156 1.576-.459 2.308s-.747 1.397-1.308 1.957c-.56.56-1.224 1.004-1.956 1.307s-1.516.459-2.308.459h-24.146c-1.6 0-3.134-.635-4.265-1.766s-1.766-2.665-1.766-4.265c0-.792.156-1.576.459-2.308s.747-1.396 1.307-1.957c.56-.56 1.225-1.004 1.957-1.307s1.516-.459 2.308-.459z" fill="#d0d4d8"/><path d="m362.573 304.25h24.146c.792 0 1.576.156 2.308.459s1.396.747 1.956 1.307c.561.561 1.005 1.225 1.308 1.957s.459 1.516.459 2.308c0 .792-.156 1.576-.459 2.308s-.747 1.397-1.308 1.957c-.56.56-1.224 1.004-1.956 1.307s-1.516.459-2.308.459h-24.146c-1.6 0-3.134-.635-4.265-1.766s-1.766-2.665-1.766-4.265c0-.792.156-1.576.459-2.308s.747-1.396 1.307-1.957c.56-.56 1.225-1.004 1.957-1.307s1.516-.459 2.308-.459z" fill="#791c88"/></g><g opacity=".5"><path d="m350.5 280.104h36.219c1.6 0 3.134.636 4.265 1.767s1.766 2.665 1.766 4.264c0 1.6-.635 3.134-1.766 4.265s-2.665 1.767-4.265 1.767h-36.219c-1.599 0-3.133-.636-4.265-1.767-1.131-1.131-1.766-2.665-1.766-4.265 0-1.599.635-3.133 1.766-4.264 1.132-1.131 2.666-1.767 4.265-1.767z" fill="#d0d4d8"/><path d="m350.5 280.104h36.219c1.6 0 3.134.636 4.265 1.767s1.766 2.665 1.766 4.264c0 1.6-.635 3.134-1.766 4.265s-2.665 1.767-4.265 1.767h-36.219c-1.599 0-3.133-.636-4.265-1.767-1.131-1.131-1.766-2.665-1.766-4.265 0-1.599.635-3.133 1.766-4.264 1.132-1.131 2.666-1.767 4.265-1.767z" fill="#791c88"/></g><g opacity=".5"><path d="m350.5 159.396h36.219c1.6 0 3.134.635 4.265 1.766s1.766 2.665 1.766 4.265c0 1.6-.635 3.134-1.766 4.265s-2.665 1.766-4.265 1.766h-36.219c-1.599 0-3.133-.635-4.265-1.766-1.131-1.131-1.766-2.665-1.766-4.265 0-1.6.635-3.134 1.766-4.265 1.132-1.131 2.666-1.766 4.265-1.766z" fill="#d0d4d8"/><path d="m350.5 159.396h36.219c1.6 0 3.134.635 4.265 1.766s1.766 2.665 1.766 4.265c0 1.6-.635 3.134-1.766 4.265s-2.665 1.766-4.265 1.766h-36.219c-1.599 0-3.133-.635-4.265-1.766-1.131-1.131-1.766-2.665-1.766-4.265 0-1.6.635-3.134 1.766-4.265 1.132-1.131 2.666-1.766 4.265-1.766z" fill="#791c88"/></g><g opacity=".5"><path d="m362.573 255.969h24.146c1.599 0 3.133.635 4.264 1.766s1.767 2.665 1.767 4.265c0 1.6-.636 3.134-1.767 4.265s-2.665 1.766-4.264 1.766h-24.146c-.793.002-1.579-.153-2.312-.456-.732-.302-1.399-.746-1.96-1.307-.561-.56-1.006-1.225-1.31-1.958-.304-.732-.46-1.517-.46-2.31s.156-1.578.46-2.311c.304-.732.749-1.397 1.31-1.957.561-.561 1.228-1.005 1.96-1.307.733-.303 1.519-.458 2.312-.456z" fill="#d0d4d8"/><path d="m362.573 255.969h24.146c1.599 0 3.133.635 4.264 1.766s1.767 2.665 1.767 4.265c0 1.6-.636 3.134-1.767 4.265s-2.665 1.766-4.264 1.766h-24.146c-.793.002-1.579-.153-2.312-.456-.732-.302-1.399-.746-1.96-1.307-.561-.56-1.006-1.225-1.31-1.958-.304-.732-.46-1.517-.46-2.31s.156-1.578.46-2.311c.304-.732.749-1.397 1.31-1.957.561-.561 1.228-1.005 1.96-1.307.733-.303 1.519-.458 2.312-.456z" fill="#791c88"/></g><g opacity=".5"><path d="m362.573 183.531h24.146c.793 0 1.578.157 2.31.46.733.304 1.398.749 1.958 1.31.56.562 1.004 1.228 1.307 1.961.302.733.457 1.518.456 2.311 0 1.6-.635 3.134-1.766 4.265-1.132 1.131-2.666 1.766-4.265 1.766h-24.146c-1.6 0-3.134-.635-4.265-1.766s-1.766-2.665-1.766-4.265c-.002-.793.153-1.578.456-2.311.302-.733.746-1.399 1.307-1.961.56-.561 1.225-1.006 1.957-1.31.733-.303 1.518-.46 2.311-.46z" fill="#d0d4d8"/><path d="m362.573 183.531h24.146c.793 0 1.578.157 2.31.46.733.304 1.398.749 1.958 1.31.56.562 1.004 1.228 1.307 1.961.302.733.457 1.518.456 2.311 0 1.6-.635 3.134-1.766 4.265-1.132 1.131-2.666 1.766-4.265 1.766h-24.146c-1.6 0-3.134-.635-4.265-1.766s-1.766-2.665-1.766-4.265c-.002-.793.153-1.578.456-2.311.302-.733.746-1.399 1.307-1.961.56-.561 1.225-1.006 1.957-1.31.733-.303 1.518-.46 2.311-.46z" fill="#791c88"/></g><g opacity=".5"><path d="m374.646 207.677h12.073c.792 0 1.576.156 2.308.459s1.397.748 1.957 1.308 1.004 1.225 1.307 1.956c.303.732.459 1.516.459 2.308 0 .792-.156 1.577-.459 2.308-.303.732-.747 1.397-1.307 1.957s-1.225 1.004-1.957 1.307-1.516.459-2.308.459h-12.073c-1.6 0-3.134-.635-4.265-1.766s-1.766-2.665-1.766-4.265c0-1.599.635-3.133 1.766-4.264s2.665-1.767 4.265-1.767z" fill="#d0d4d8"/><path d="m374.646 207.677h12.073c.792 0 1.576.156 2.308.459s1.397.748 1.957 1.308 1.004 1.225 1.307 1.956c.303.732.459 1.516.459 2.308 0 .792-.156 1.577-.459 2.308-.303.732-.747 1.397-1.307 1.957s-1.225 1.004-1.957 1.307-1.516.459-2.308.459h-12.073c-1.6 0-3.134-.635-4.265-1.766s-1.766-2.665-1.766-4.265c0-1.599.635-3.133 1.766-4.264s2.665-1.767 4.265-1.767z" fill="#791c88"/></g><g opacity=".5"><path d="m374.646 231.823h12.073c.792 0 1.576.156 2.308.459s1.397.747 1.957 1.307 1.004 1.225 1.307 1.957.459 1.516.459 2.308c0 .792-.156 1.576-.459 2.308s-.747 1.397-1.307 1.957-1.225 1.004-1.957 1.307-1.516.459-2.308.459h-12.073c-1.6 0-3.134-.635-4.265-1.766s-1.766-2.665-1.766-4.265c0-1.6.635-3.134 1.766-4.265s2.665-1.766 4.265-1.766z" fill="#d0d4d8"/><path d="m374.646 231.823h12.073c.792 0 1.576.156 2.308.459s1.397.747 1.957 1.307 1.004 1.225 1.307 1.957.459 1.516.459 2.308c0 .792-.156 1.576-.459 2.308s-.747 1.397-1.307 1.957-1.225 1.004-1.957 1.307-1.516.459-2.308.459h-12.073c-1.6 0-3.134-.635-4.265-1.766s-1.766-2.665-1.766-4.265c0-1.6.635-3.134 1.766-4.265s2.665-1.766 4.265-1.766z" fill="#791c88"/></g><g opacity=".5"><path d="m278.073 328.396h108.646c1.599 0 3.133.635 4.265 1.766 1.131 1.131 1.766 2.666 1.766 4.265 0 1.6-.635 3.134-1.766 4.265-1.132 1.131-2.666 1.766-4.265 1.766h-108.646c-1.6 0-3.134-.635-4.265-1.766s-1.766-2.665-1.766-4.265c0-1.599.635-3.134 1.766-4.265s2.665-1.766 4.265-1.766z" fill="#d0d4d8"/><path d="m278.073 328.396h108.646c1.599 0 3.133.635 4.265 1.766 1.131 1.131 1.766 2.666 1.766 4.265 0 1.6-.635 3.134-1.766 4.265-1.132 1.131-2.666 1.766-4.265 1.766h-108.646c-1.6 0-3.134-.635-4.265-1.766s-1.766-2.665-1.766-4.265c0-1.599.635-3.134 1.766-4.265s2.665-1.766 4.265-1.766z" fill="#791c88"/></g><g opacity=".5"><path d="m229.781 328.396h24.146c1.6 0 3.134.635 4.265 1.766s1.766 2.666 1.766 4.265c0 1.6-.635 3.134-1.766 4.265s-2.665 1.766-4.265 1.766h-24.146c-1.599 0-3.133-.635-4.265-1.766-1.131-1.131-1.766-2.665-1.766-4.265 0-1.599.635-3.134 1.766-4.265 1.132-1.131 2.666-1.766 4.265-1.766z" fill="#d0d4d8"/><path d="m229.781 328.396h24.146c1.6 0 3.134.635 4.265 1.766s1.766 2.666 1.766 4.265c0 1.6-.635 3.134-1.766 4.265s-2.665 1.766-4.265 1.766h-24.146c-1.599 0-3.133-.635-4.265-1.766-1.131-1.131-1.766-2.665-1.766-4.265 0-1.599.635-3.134 1.766-4.265 1.132-1.131 2.666-1.766 4.265-1.766z" fill="#791c88"/></g><g opacity=".5"><path d="m326.354 376.677h60.354c1.6 0 3.134.636 4.265 1.767s1.767 2.665 1.767 4.264c0 .792-.156 1.577-.46 2.308-.303.732-.747 1.397-1.307 1.957s-1.225 1.004-1.957 1.307c-.731.304-1.516.46-2.308.46h-60.354c-.792 0-1.576-.156-2.308-.46-.732-.303-1.396-.747-1.957-1.307-.56-.56-1.004-1.225-1.307-1.957-.303-.731-.459-1.516-.459-2.308 0-1.599.635-3.133 1.766-4.264 1.132-1.131 2.666-1.767 4.265-1.767z" fill="#d0d4d8"/><path d="m326.354 376.677h60.354c1.6 0 3.134.636 4.265 1.767s1.767 2.665 1.767 4.264c0 .792-.156 1.577-.46 2.308-.303.732-.747 1.397-1.307 1.957s-1.225 1.004-1.957 1.307c-.731.304-1.516.46-2.308.46h-60.354c-.792 0-1.576-.156-2.308-.46-.732-.303-1.396-.747-1.957-1.307-.56-.56-1.004-1.225-1.307-1.957-.303-.731-.459-1.516-.459-2.308 0-1.599.635-3.133 1.766-4.264 1.132-1.131 2.666-1.767 4.265-1.767z" fill="#791c88"/></g><g opacity=".5"><path d="m229.781 376.677h72.427c1.6 0 3.134.636 4.265 1.767s1.766 2.665 1.766 4.264c0 .792-.156 1.577-.459 2.308-.303.732-.747 1.397-1.307 1.957s-1.225 1.004-1.957 1.307c-.731.304-1.516.46-2.308.46h-72.427c-1.598 0-3.13-.634-4.261-1.763s-1.767-2.66-1.77-4.258c-.001-.793.154-1.578.456-2.311.303-.733.747-1.399 1.307-1.961.56-.561 1.225-1.006 1.958-1.31.732-.304 1.517-.46 2.31-.46z" fill="#d0d4d8"/><path d="m229.781 376.677h72.427c1.6 0 3.134.636 4.265 1.767s1.766 2.665 1.766 4.264c0 .792-.156 1.577-.459 2.308-.303.732-.747 1.397-1.307 1.957s-1.225 1.004-1.957 1.307c-.731.304-1.516.46-2.308.46h-72.427c-1.598 0-3.13-.634-4.261-1.763s-1.767-2.66-1.77-4.258c-.001-.793.154-1.578.456-2.311.303-.733.747-1.399 1.307-1.961.56-.561 1.225-1.006 1.958-1.31.732-.304 1.517-.46 2.31-.46z" fill="#791c88"/></g><g opacity=".5"><path d="m229.781 207.677h36.219c1.6 0 3.134.636 4.265 1.767s1.766 2.665 1.766 4.264c.002.793-.153 1.579-.456 2.312-.302.733-.746 1.399-1.307 1.96-.56.561-1.225 1.006-1.958 1.31-.732.304-1.517.46-2.31.46h-36.219c-1.599 0-3.133-.635-4.264-1.766-1.132-1.132-1.767-2.666-1.767-4.265-.001-.793.154-1.578.456-2.311.303-.733.747-1.399 1.307-1.961.56-.561 1.225-1.006 1.958-1.31.732-.304 1.517-.46 2.31-.46z" fill="#d0d4d8"/><path d="m229.781 207.677h36.219c1.6 0 3.134.636 4.265 1.767s1.766 2.665 1.766 4.264c.002.793-.153 1.579-.456 2.312-.302.733-.746 1.399-1.307 1.96-.56.561-1.225 1.006-1.958 1.31-.732.304-1.517.46-2.31.46h-36.219c-1.599 0-3.133-.635-4.264-1.766-1.132-1.132-1.767-2.666-1.767-4.265-.001-.793.154-1.578.456-2.311.303-.733.747-1.399 1.307-1.961.56-.561 1.225-1.006 1.958-1.31.732-.304 1.517-.46 2.31-.46z" fill="#791c88"/></g><g opacity=".5"><path d="m229.781 231.823h36.219c1.6 0 3.134.635 4.265 1.766s1.766 2.665 1.766 4.265c0 1.6-.635 3.134-1.766 4.265s-2.665 1.766-4.265 1.766h-36.219c-1.599 0-3.133-.635-4.265-1.766-1.131-1.131-1.766-2.665-1.766-4.265 0-1.6.635-3.134 1.766-4.265 1.132-1.131 2.666-1.766 4.265-1.766z" fill="#d0d4d8"/><path d="m229.781 231.823h36.219c1.6 0 3.134.635 4.265 1.766s1.766 2.665 1.766 4.265c0 1.6-.635 3.134-1.766 4.265s-2.665 1.766-4.265 1.766h-36.219c-1.599 0-3.133-.635-4.265-1.766-1.131-1.131-1.766-2.665-1.766-4.265 0-1.6.635-3.134 1.766-4.265 1.132-1.131 2.666-1.766 4.265-1.766z" fill="#791c88"/></g><g opacity=".5"><path d="m302.219 352.531h12.073c1.599 0 3.133.636 4.265 1.767 1.131 1.131 1.766 2.665 1.766 4.264 0 1.6-.635 3.134-1.766 4.265-1.132 1.131-2.666 1.767-4.265 1.767h-12.073c-1.6 0-3.134-.636-4.265-1.767s-1.766-2.665-1.766-4.265c0-1.599.635-3.133 1.766-4.264s2.665-1.767 4.265-1.767z" fill="#d0d4d8"/><path d="m302.219 352.531h12.073c1.599 0 3.133.636 4.265 1.767 1.131 1.131 1.766 2.665 1.766 4.264 0 1.6-.635 3.134-1.766 4.265-1.132 1.131-2.666 1.767-4.265 1.767h-12.073c-1.6 0-3.134-.636-4.265-1.767s-1.766-2.665-1.766-4.265c0-1.599.635-3.133 1.766-4.264s2.665-1.767 4.265-1.767z" fill="#791c88"/></g><g opacity=".5"><path d="m229.781 352.531h48.281c1.6 0 3.134.636 4.265 1.767s1.767 2.665 1.767 4.264c0 1.6-.636 3.134-1.767 4.265s-2.665 1.767-4.265 1.767h-48.281c-1.598 0-3.13-.634-4.261-1.763s-1.767-2.66-1.77-4.258c-.001-.793.154-1.578.456-2.311.303-.733.747-1.399 1.307-1.961.56-.561 1.225-1.006 1.958-1.31.732-.304 1.517-.46 2.31-.46z" fill="#d0d4d8"/><path d="m229.781 352.531h48.281c1.6 0 3.134.636 4.265 1.767s1.767 2.665 1.767 4.264c0 1.6-.636 3.134-1.767 4.265s-2.665 1.767-4.265 1.767h-48.281c-1.598 0-3.13-.634-4.261-1.763s-1.767-2.66-1.77-4.258c-.001-.793.154-1.578.456-2.311.303-.733.747-1.399 1.307-1.961.56-.561 1.225-1.006 1.958-1.31.732-.304 1.517-.46 2.31-.46z" fill="#791c88"/></g><g opacity=".5"><path d="m338.427 352.531h48.281c1.6 0 3.134.636 4.265 1.767s1.767 2.665 1.767 4.264c0 1.6-.636 3.134-1.767 4.265s-2.665 1.767-4.265 1.767h-48.281c-1.599 0-3.133-.636-4.265-1.767-1.131-1.131-1.766-2.665-1.766-4.265 0-1.599.635-3.133 1.766-4.264 1.132-1.131 2.666-1.767 4.265-1.767z" fill="#d0d4d8"/><path d="m338.427 352.531h48.281c1.6 0 3.134.636 4.265 1.767s1.767 2.665 1.767 4.264c0 1.6-.636 3.134-1.767 4.265s-2.665 1.767-4.265 1.767h-48.281c-1.599 0-3.133-.636-4.265-1.767-1.131-1.131-1.766-2.665-1.766-4.265 0-1.599.635-3.133 1.766-4.264 1.132-1.131 2.666-1.767 4.265-1.767z" fill="#791c88"/></g></g></svg>